M48
; DRILL file {KiCad (5.99.0-10628-ga06f965ffa)} date Wed Nov 10 02:30:58 2021
; FORMAT={-:-/ absolute / metric / decimal}
; #@! TF.CreationDate,2021-11-10T02:30:58+01:00
; #@! TF.GenerationSoftware,Kicad,Pcbnew,(5.99.0-10628-ga06f965ffa)
; #@! TF.FileFunction,Plated,1,2,PTH
FMAT,2
METRIC
; #@! TA.AperFunction,Plated,PTH,ViaDrill
T1C0.300
; #@! TA.AperFunction,Plated,PTH,ViaDrill
T2C0.500
; #@! TA.AperFunction,Plated,PTH,ComponentDrill
T3C0.700
; #@! TA.AperFunction,Plated,PTH,ComponentDrill
T4C0.900
; #@! TA.AperFunction,Plated,PTH,ComponentDrill
T5C1.000
; #@! TA.AperFunction,Plated,PTH,ComponentDrill
T6C1.016
; #@! TA.AperFunction,Plated,PTH,ComponentDrill
T7C1.100
; #@! TA.AperFunction,Plated,PTH,ComponentDrill
T8C1.200
; #@! TA.AperFunction,Plated,PTH,ComponentDrill
T9C1.600
%
G90
G05
T1
X68.8Y-84.3
X71.85Y-90.1
X71.85Y-92.9
X71.85Y-97.35
X72.35Y-116.15
X72.45Y-98.4
X73.15Y-92.9
X73.2Y-85.0
X74.0Y-118.85
X74.1Y-83.55
X75.8Y-83.55
X77.1Y-80.5
X82.0Y-83.4
X82.6Y-87.15
X82.6Y-89.65
X82.75Y-91.45
X83.35Y-86.15
X83.35Y-88.65
X83.35Y-90.65
X83.75Y-91.45
X84.25Y-85.3
X84.75Y-90.65
X85.2Y-79.45
X85.85Y-95.2
X86.2Y-81.9
X86.25Y-86.3
X86.35Y-99.15
X86.9Y-87.1
X87.05Y-81.45
X87.45Y-87.95
X88.0Y-88.9
X88.5Y-89.9
X89.5Y-68.2
X89.5Y-75.2
X89.5Y-76.9
X89.5Y-78.6
X90.05Y-84.9
X91.65Y-96.25
X95.4Y-127.75
X95.7Y-91.55
X97.5Y-78.85
X97.5Y-81.4
X97.5Y-83.9
X97.5Y-86.45
X98.4Y-89.05
X99.3Y-127.0
X101.0Y-91.55
X102.5Y-128.75
X104.5Y-128.75
X106.5Y-128.75
X106.6Y-117.4
X107.95Y-114.65
X110.5Y-128.75
X111.1Y-115.75
X114.5Y-128.75
X116.5Y-128.75
X118.5Y-131.05
X120.5Y-128.75
X122.5Y-128.75
T2
X73.45Y-117.45
X74.4Y-98.85
X76.9Y-86.8
X76.95Y-91.7
X78.7Y-99.35
X80.65Y-84.2
X82.9Y-97.9
X91.6Y-89.95
T3
X66.85Y-84.2
X66.85Y-85.8
X68.05Y-83.4
X68.05Y-85.0
X68.05Y-86.6
T4
X77.45Y-66.555
X77.45Y-69.095
X77.45Y-71.635
X77.45Y-74.175
X79.99Y-67.825
X79.99Y-70.365
X79.99Y-72.905
X79.99Y-75.445
T5
X94.03Y-64.87
X94.03Y-67.41
X94.03Y-69.95
X94.03Y-72.49
X94.03Y-75.03
X94.03Y-77.57
X94.03Y-80.11
X94.03Y-82.65
X94.03Y-85.19
X94.03Y-87.73
X94.03Y-90.27
X94.03Y-92.81
X94.03Y-95.35
X94.03Y-97.89
X94.03Y-100.43
X94.03Y-102.97
X94.03Y-105.51
X94.03Y-108.05
X94.03Y-110.59
X94.03Y-113.13
X121.97Y-64.87
X121.97Y-67.41
X121.97Y-69.95
X121.97Y-72.49
X121.97Y-75.03
X121.97Y-77.57
X121.97Y-80.11
X121.97Y-82.65
X121.97Y-85.19
X121.97Y-87.73
X121.97Y-90.27
X121.97Y-92.81
X121.97Y-95.35
X121.97Y-97.89
X121.97Y-100.43
X121.97Y-102.97
X121.97Y-105.51
X121.97Y-108.05
X121.97Y-110.59
X121.97Y-113.13
T6
X66.73Y-118.46
X66.73Y-121.0
X66.73Y-123.54
X69.27Y-118.46
X69.27Y-121.0
X69.27Y-123.54
T7
X65.5Y-91.19
X65.5Y-93.73
X65.5Y-96.27
X65.5Y-98.81
X65.5Y-102.69
X65.5Y-105.23
X65.5Y-107.77
X65.5Y-110.31
T8
X77.5Y-125.0
X82.5Y-125.0
X87.5Y-125.0
X92.5Y-125.0
T9
X74.15Y-63.125
X74.15Y-78.875
T3
G00X63.6Y-81.35
M15
G01X62.4Y-81.35
M16
G05
G00X63.6Y-88.65
M15
G01X62.4Y-88.65
M16
G05
T0
M30
